<svg width="600" height="600" viewBox="0 0 600 600" fill="none" xmlns="http://www.w3.org/2000/svg">
<rect width="600" height="600" fill="white"/>
<circle cx="300" cy="300" r="239.5" stroke="black" stroke-width="3"/>
<circle cx="300.5" cy="300.5" r="168" stroke="black" stroke-width="3"/>
<circle cx="233.289" cy="266.945" r="22.8379" fill="black"/>
<circle cx="366.71" cy="266.945" r="22.8379" fill="black"/>
<path d="M328.583 337.596L307.588 402.469C307.545 402.496 307.499 402.526 307.451 402.557C307.103 402.779 306.608 403.076 306.026 403.372C304.818 403.985 303.414 404.5 302.214 404.5C301.014 404.5 299.61 403.985 298.403 403.372C297.821 403.076 297.326 402.779 296.978 402.557C296.914 402.516 296.855 402.478 296.802 402.443L271.653 337.687C273.537 338.412 276.128 339.357 279.107 340.303C285.246 342.25 293.176 344.245 300 344.245C306.824 344.245 314.754 342.25 320.893 340.303C323.98 339.323 326.65 338.344 328.55 337.609C328.561 337.605 328.572 337.601 328.583 337.596Z" stroke="black" stroke-width="3"/>
</svg>
