<svg width="600" height="600" viewBox="0 0 600 600" fill="none" xmlns="http://www.w3.org/2000/svg">
<mask id="path-1-inside-1_162_3121" fill="white">
<path d="M541 300C541 433.101 433.101 541 300 541C166.899 541 59 433.101 59 300C59 166.899 166.899 59 300 59C433.101 59 541 166.899 541 300Z"/>
<path d="M470 300.5C470 394.112 394.112 470 300.5 470C206.888 470 131 394.112 131 300.5C131 206.888 206.888 131 300.5 131C394.112 131 470 206.888 470 300.5Z"/>
<path d="M256.127 266.945C256.127 279.558 245.902 289.783 233.289 289.783C220.676 289.783 210.451 279.558 210.451 266.945C210.451 254.332 220.676 244.107 233.289 244.107C245.902 244.107 256.127 254.332 256.127 266.945Z"/>
<path d="M389.548 266.945C389.548 279.558 379.324 289.783 366.711 289.783C354.097 289.783 343.873 279.558 343.873 266.945C343.873 254.332 354.097 244.107 366.711 244.107C379.324 244.107 389.548 254.332 389.548 266.945Z"/>
<path d="M269 335C269 335 286.829 342.745 300 342.745C313.171 342.745 331 335 331 335L308.857 403.418C308.857 403.418 305.332 406 302.214 406C299.096 406 295.571 403.418 295.571 403.418L269 335Z"/>
</mask>
<path d="M269 335L270.195 332.248L263.6 329.383L266.203 336.086L269 335ZM331 335L333.854 335.924L335.901 329.6L329.805 332.248L331 335ZM308.857 403.418L310.63 405.838L311.413 405.265L311.711 404.342L308.857 403.418ZM295.571 403.418L292.775 404.504L293.092 405.321L293.799 405.838L295.571 403.418ZM538 300C538 431.444 431.444 538 300 538V544C434.757 544 544 434.757 544 300H538ZM300 538C168.556 538 62 431.444 62 300H56C56 434.757 165.243 544 300 544V538ZM62 300C62 168.556 168.556 62 300 62V56C165.243 56 56 165.243 56 300H62ZM300 62C431.444 62 538 168.556 538 300H544C544 165.243 434.757 56 300 56V62ZM467 300.5C467 392.455 392.455 467 300.5 467V473C395.769 473 473 395.769 473 300.5H467ZM300.5 467C208.545 467 134 392.455 134 300.5H128C128 395.769 205.231 473 300.5 473V467ZM134 300.5C134 208.545 208.545 134 300.5 134V128C205.231 128 128 205.231 128 300.5H134ZM300.5 134C392.455 134 467 208.545 467 300.5H473C473 205.231 395.769 128 300.5 128V134ZM253.127 266.945C253.127 277.902 244.245 286.783 233.289 286.783V292.783C247.559 292.783 259.127 281.215 259.127 266.945H253.127ZM233.289 286.783C222.333 286.783 213.451 277.902 213.451 266.945H207.451C207.451 281.215 219.019 292.783 233.289 292.783V286.783ZM213.451 266.945C213.451 255.989 222.333 247.107 233.289 247.107V241.107C219.019 241.107 207.451 252.675 207.451 266.945H213.451ZM233.289 247.107C244.245 247.107 253.127 255.989 253.127 266.945H259.127C259.127 252.675 247.559 241.107 233.289 241.107V247.107ZM386.548 266.945C386.548 277.901 377.667 286.783 366.711 286.783V292.783C380.98 292.783 392.548 281.215 392.548 266.945H386.548ZM366.711 286.783C355.754 286.783 346.873 277.902 346.873 266.945H340.873C340.873 281.215 352.441 292.783 366.711 292.783V286.783ZM346.873 266.945C346.873 255.989 355.754 247.107 366.711 247.107V241.107C352.441 241.107 340.873 252.675 340.873 266.945H346.873ZM366.711 247.107C377.667 247.107 386.548 255.989 386.548 266.945H392.548C392.548 252.675 380.98 241.107 366.711 241.107V247.107ZM328.146 334.076L306.003 402.494L311.711 404.342L333.854 335.924L328.146 334.076ZM298.368 402.332L271.797 333.914L266.203 336.086L292.775 404.504L298.368 402.332ZM269 335C267.805 337.752 267.805 337.752 267.806 337.752C267.806 337.752 267.806 337.752 267.807 337.753C267.808 337.753 267.809 337.754 267.811 337.754C267.814 337.756 267.818 337.757 267.823 337.76C267.834 337.764 267.849 337.771 267.868 337.779C267.906 337.795 267.961 337.819 268.032 337.849C268.175 337.909 268.381 337.996 268.647 338.106C269.179 338.325 269.948 338.636 270.909 339.008C272.83 339.751 275.53 340.741 278.654 341.732C284.829 343.691 292.938 345.745 300 345.745V339.745C293.891 339.745 286.5 337.927 280.468 336.013C277.488 335.068 274.907 334.121 273.074 333.412C272.158 333.058 271.431 332.764 270.936 332.56C270.689 332.458 270.5 332.378 270.375 332.325C270.312 332.298 270.265 332.278 270.235 332.266C270.22 332.259 270.209 332.254 270.202 332.252C270.199 332.25 270.197 332.249 270.196 332.249C270.195 332.248 270.195 332.248 270.195 332.248C270.195 332.248 270.195 332.248 270.195 332.248C270.195 332.248 270.195 332.248 269 335ZM300 345.745C307.062 345.745 315.171 343.691 321.346 341.732C324.47 340.741 327.17 339.751 329.091 339.008C330.052 338.636 330.821 338.325 331.353 338.106C331.619 337.996 331.825 337.909 331.968 337.849C332.039 337.819 332.094 337.795 332.132 337.779C332.151 337.771 332.166 337.764 332.177 337.76C332.182 337.757 332.186 337.756 332.189 337.754C332.191 337.754 332.192 337.753 332.193 337.753C332.194 337.752 332.194 337.752 332.194 337.752C332.195 337.752 332.195 337.752 331 335C329.805 332.248 329.805 332.248 329.805 332.248C329.805 332.248 329.805 332.248 329.805 332.248C329.805 332.248 329.805 332.248 329.804 332.249C329.803 332.249 329.801 332.25 329.798 332.252C329.791 332.254 329.78 332.259 329.765 332.266C329.735 332.278 329.688 332.298 329.625 332.325C329.5 332.378 329.311 332.458 329.064 332.56C328.569 332.764 327.842 333.058 326.926 333.412C325.093 334.121 322.512 335.068 319.532 336.013C313.5 337.927 306.109 339.745 300 339.745V345.745ZM308.857 403.418C307.084 400.998 307.085 400.998 307.085 400.997C307.086 400.997 307.086 400.997 307.086 400.997C307.087 400.996 307.087 400.996 307.088 400.995C307.089 400.995 307.089 400.994 307.09 400.994C307.091 400.993 307.091 400.993 307.091 400.993C307.089 400.994 307.085 400.997 307.078 401.003C307.063 401.013 307.036 401.032 306.998 401.059C306.921 401.111 306.801 401.193 306.643 401.293C306.327 401.495 305.875 401.766 305.347 402.034C304.202 402.615 303.055 403 302.214 403V409C304.491 409 306.665 408.094 308.063 407.384C308.806 407.007 309.43 406.632 309.872 406.35C310.094 406.209 310.273 406.088 310.402 406C310.466 405.955 310.518 405.919 310.556 405.892C310.575 405.878 310.591 405.867 310.603 405.858C310.609 405.853 310.615 405.849 310.619 405.846C310.621 405.845 310.623 405.843 310.625 405.842C310.626 405.841 310.627 405.841 310.628 405.84C310.628 405.84 310.629 405.839 310.629 405.839C310.629 405.839 310.63 405.838 308.857 403.418ZM302.214 403C301.373 403 300.226 402.615 299.082 402.034C298.553 401.766 298.102 401.495 297.785 401.293C297.628 401.193 297.507 401.111 297.431 401.059C297.393 401.032 297.366 401.013 297.351 401.003C297.343 400.997 297.339 400.994 297.338 400.993C297.337 400.993 297.338 400.993 297.339 400.994C297.339 400.994 297.34 400.995 297.341 400.995C297.341 400.996 297.342 400.996 297.342 400.997C297.343 400.997 297.343 400.997 297.343 400.997C297.344 400.998 297.344 400.998 295.571 403.418C293.799 405.838 293.799 405.839 293.8 405.839C293.8 405.839 293.801 405.84 293.801 405.84C293.802 405.841 293.803 405.841 293.803 405.842C293.805 405.843 293.807 405.845 293.809 405.846C293.814 405.849 293.819 405.853 293.825 405.858C293.838 405.867 293.853 405.878 293.873 405.892C293.911 405.919 293.963 405.955 294.027 406C294.155 406.088 294.335 406.209 294.557 406.35C294.998 406.632 295.623 407.007 296.365 407.384C297.763 408.094 299.938 409 302.214 409V403Z" fill="black" mask="url(#path-1-inside-1_162_3121)"/>
</svg>
