<svg width="1174" height="608" viewBox="0 0 1174 608" fill="none" xmlns="http://www.w3.org/2000/svg">
<rect width="1174" height="608" fill="white"/>
<path fill-rule="evenodd" clip-rule="evenodd" d="M318.5 502C428.129 502 517 413.129 517 303.5C517 193.871 428.129 105 318.5 105C208.871 105 120 193.871 120 303.5C120 413.129 208.871 502 318.5 502ZM318.5 504C429.233 504 519 414.233 519 303.5C519 192.767 429.233 103 318.5 103C207.767 103 118 192.767 118 303.5C118 414.233 207.767 504 318.5 504ZM319 443C395.768 443 458 380.768 458 304C458 227.232 395.768 165 319 165C242.232 165 180 227.232 180 304C180 380.768 242.232 443 319 443ZM319 445C396.872 445 460 381.872 460 304C460 226.128 396.872 163 319 163C241.128 163 178 226.128 178 304C178 381.872 241.128 445 319 445ZM263 295C273.493 295 282 286.493 282 276C282 265.507 273.493 257 263 257C252.507 257 244 265.507 244 276C244 286.493 252.507 295 263 295ZM393 276C393 286.493 384.493 295 374 295C363.507 295 355 286.493 355 276C355 265.507 363.507 257 374 257C384.493 257 393 265.507 393 276ZM344 333C344 333 343.101 333.395 341.583 333.988C336.972 335.793 326.652 339.436 318.5 339.436C310.421 339.436 300.212 335.858 295.541 334.037C293.949 333.416 293 333 293 333L293.99 335.575L314.857 389.855C314.857 389.855 317.757 392 320.321 392C322.886 392 325.786 389.855 325.786 389.855L343.199 335.499L344 333ZM335.923 338.123C337.765 337.532 339.428 336.942 340.801 336.429L324.093 388.583C323.833 388.746 323.493 388.948 323.102 389.148C322.141 389.641 321.12 390 320.321 390C319.522 390 318.502 389.641 317.54 389.148C317.124 388.934 316.764 388.719 316.498 388.55L296.505 336.543C297.817 337.029 299.369 337.576 301.077 338.123C306.145 339.747 312.762 341.436 318.5 341.436C324.238 341.436 330.855 339.747 335.923 338.123Z" fill="black"/>
<path fill-rule="evenodd" clip-rule="evenodd" d="M1041 224.828L1121.01 304.843L1041 384.857V224.828ZM1039 386.857L1016 409.857V199.828L1039 222.828V386.857ZM991 174.828L1014 197.828V411.857L991 434.857V174.828ZM991 172L1014 195V132H951L974 155H989H991V157V172ZM976 157H989V170L976 157ZM973.172 157L989 172.828V436.857L972.857 453H709.143L693 436.857L693 172.828L708.828 157L973.172 157ZM971.172 155L948.172 132L733.828 132L710.828 155L971.172 155ZM708 155L731 132H668V195L691 172V157V155H693H708ZM693 170L706 157H693V170ZM691 174.828L668 197.828L668 411.857L691 434.857L691 174.828ZM691 437.685L668 414.685V478H731.315L708.315 455H693H691V453V437.685ZM706.315 453L693 439.685V453H706.315ZM711.143 455L734.143 478H947.857L970.857 455H711.143ZM973.685 455L950.685 478H1014V414.685L991 437.685V453V455H989H973.685ZM989 439.685L975.685 453H989V439.685ZM1014 480H948.685L925.685 503H1039V389.685L1016 412.685V478L1016 480H1014ZM759.143 503L736.143 480H945.857L922.857 503H759.143ZM666 478V412.685L643 389.685V503H756.315L733.315 480H668L666 480V478ZM643 222.828L666 199.828L666 409.857L643 386.857V222.828ZM668 130H733L756 107H643V220L666 197V132V130H668ZM946.172 130L735.828 130L758.828 107H923.172L946.172 130ZM926 107L949 130H1014H1016V132V197L1039 220V107H926ZM1041 222L1122.43 303.428L1123.84 304.843L1122.43 306.257L1041 387.685V503V505H1039H923.685L842.414 586.271L841 587.685L839.586 586.271L758.315 505H643H641V503V387.685L559.571 306.257L558.157 304.843L559.571 303.428L641 222V107V105H643H758L839.586 23.4142L841 22L842.414 23.4142L924 105H1039H1041V107V222ZM921.172 105L841 24.8284L760.828 105H921.172ZM641 224.828L560.986 304.843L641 384.857V224.828ZM761.143 505L841 584.857L920.857 505H761.143Z" fill="black"/>
</svg>
