<svg width="944" height="771" viewBox="0 0 944 771" fill="none" xmlns="http://www.w3.org/2000/svg">
<path d="M175.125 143.375C192.384 143.375 206.375 129.384 206.375 112.125C206.375 94.8661 192.384 80.875 175.125 80.875C157.866 80.875 143.875 94.8661 143.875 112.125C143.875 129.384 157.866 143.375 175.125 143.375Z" stroke="black" stroke-width="5" stroke-linecap="round" stroke-linejoin="round"/>
<path d="M855.644 100.999C864.87 100.999 872.349 93.5203 872.349 84.2945C872.349 75.0688 864.87 67.5898 855.644 67.5898C846.418 67.5898 838.939 75.0688 838.939 84.2945C838.939 93.5203 846.418 100.999 855.644 100.999Z" fill="black"/>
<path d="M152.519 616.624C161.744 616.624 169.223 609.145 169.223 599.92C169.223 590.694 161.744 583.215 152.519 583.215C143.293 583.215 135.814 590.694 135.814 599.92C135.814 609.145 143.293 616.624 152.519 616.624Z" fill="black"/>
<path d="M628.948 393.139C667.249 377.014 699.681 349.529 721.871 314.393C744.061 279.257 754.94 238.16 753.041 196.647C751.142 155.134 736.555 115.203 711.25 82.2396C685.945 49.2764 651.138 24.8679 611.525 12.3069C571.913 -0.254027 529.401 -0.362986 489.724 11.9948C450.048 24.3525 415.116 48.5823 389.642 81.4153C364.168 114.248 349.378 154.105 347.266 195.607C345.154 237.11 355.822 278.262 377.831 313.511" stroke="black" stroke-width="5" stroke-linecap="round" stroke-linejoin="round"/>
<path d="M581.375 159H534.5V252.75" stroke="black" stroke-width="5" stroke-linecap="round" stroke-linejoin="round"/>
<path d="M581.375 205.875H534.5" stroke="black" stroke-width="5" stroke-linecap="round" stroke-linejoin="round"/>
<path d="M487.625 221.5L425.125 159V252.75" stroke="black" stroke-width="5" stroke-linecap="round" stroke-linejoin="round"/>
<path d="M487.625 159V252.75" stroke="black" stroke-width="5" stroke-linecap="round" stroke-linejoin="round"/>
<path d="M628.25 159H690.75" stroke="black" stroke-width="5" stroke-linecap="round" stroke-linejoin="round"/>
<path d="M659.5 252.75V159" stroke="black" stroke-width="5" stroke-linecap="round" stroke-linejoin="round"/>
<path d="M940.75 768.376L768.875 721.501L534.5 768.376L258.959 724.869C253.013 723.93 247.596 720.9 243.685 716.323C239.774 711.746 237.625 705.923 237.625 699.902V699.902C237.625 693.198 240.288 686.769 245.028 682.029C249.769 677.289 256.198 674.626 262.902 674.626H425.125V656.602C425.125 640.662 431.457 625.375 442.728 614.104C454 602.833 469.287 596.501 485.227 596.501H581.375C581.375 596.501 612.625 518.376 722 534.001C831.375 549.626 815.75 580.876 940.75 580.876" stroke="black" stroke-width="5" stroke-linecap="round" stroke-linejoin="round"/>
<path d="M409.5 674.625H597L675.125 643.375" stroke="black" stroke-width="5" stroke-linecap="round" stroke-linejoin="round"/>
<path d="M3.25 487.126L175.125 440.251L409.5 487.126L685.041 443.619C690.987 442.68 696.404 439.65 700.315 435.073C704.226 430.496 706.375 424.673 706.375 418.652V418.652C706.375 411.948 703.712 405.519 698.972 400.779C694.231 396.039 687.802 393.376 681.098 393.376H518.875V375.352C518.875 359.412 512.543 344.125 501.272 332.854C490 321.583 474.713 315.251 458.773 315.251H362.625C362.625 315.251 331.375 237.126 222 252.751C112.625 268.376 128.25 299.626 3.25 299.626" stroke="black" stroke-width="5" stroke-linecap="round" stroke-linejoin="round"/>
<path d="M534.5 393.375H347L268.875 362.125" stroke="black" stroke-width="5" stroke-linecap="round" stroke-linejoin="round"/>
<path d="M862.625 330.875V393.375" stroke="black" stroke-width="5" stroke-linecap="round" stroke-linejoin="round"/>
<path d="M831.375 362.125H893.875" stroke="black" stroke-width="5" stroke-linecap="round" stroke-linejoin="round"/>
</svg>
