<?xml version="1.0" ?><svg viewBox="0 0 64 64" xmlns="http://www.w3.org/2000/svg"><defs><style>.cls-1{fill:none;stroke:#000;stroke-linecap:round;stroke-linejoin:round;stroke-width:2px;}</style></defs><g id="nft-coin"><circle class="cls-1" cx="13" cy="13" r="2"/><circle cx="56.5532" cy="11.2188" r="1.0691"/><circle cx="11.5532" cy="44.2188" r="1.0691"/><path class="cls-1" d="M42.0447,30.9849a13,13,0,1,0-16.0715-5.0962"/><polyline class="cls-1" points="39 16 36 16 36 22"/><line class="cls-1" x1="39" x2="36" y1="19" y2="19"/><polyline class="cls-1" points="33 20 29 16 29 22"/><line class="cls-1" x1="33" x2="33" y1="16" y2="22"/><line class="cls-1" x1="42" x2="46" y1="16" y2="16"/><line class="cls-1" x1="44" x2="44" y1="22" y2="16"/><path class="cls-1" d="M62,55,51,52,36,55,18.3654,52.2156A1.6177,1.6177,0,0,1,17,50.6177h0A1.6177,1.6177,0,0,1,18.6177,49H29V47.8465A3.8465,3.8465,0,0,1,32.8465,44H39s2-5,9-4,6,3,14,3"/><polyline class="cls-1" points="28 49 40 49 45 47"/><path class="cls-1" d="M2,37l11-3,15,3,17.6346-2.7844A1.6177,1.6177,0,0,0,47,32.6177h0A1.6177,1.6177,0,0,0,45.3823,31H35V29.8465A3.8465,3.8465,0,0,0,31.1535,26H25s-2-5-9-4-6,3-14,3"/><polyline class="cls-1" points="36 31 24 31 19 29"/><line class="cls-1" x1="57" x2="57" y1="27" y2="31"/><line class="cls-1" x1="55" x2="59" y1="29" y2="29"/></g></svg>